<?xml version='1.0' encoding='utf-8'?>
<svg xmlns="http://www.w3.org/2000/svg" enable-background="new 0 0 32 32" version="1.1" viewBox="0 0 32 32"> <rect x="20" y="6" width="6" height="6" fill="none" stroke="#000" stroke-miterlimit="10" stroke-width="2"/> <rect x="6" y="6" width="6" height="6" fill="none" stroke="#000" stroke-miterlimit="10" stroke-width="2"/> <rect x="6" y="20" width="6" height="6" fill="none" stroke="#000" stroke-miterlimit="10" stroke-width="2"/> <rect x="8" y="8" width="2" height="2"/> <rect x="22" y="8" width="2" height="2"/> <rect x="8" y="22" width="2" height="2"/> <line x1="16" x2="16" y1="5" y2="12" fill="none" stroke="#000" stroke-miterlimit="10" stroke-width="2"/> <line x1="17" x2="17" y1="21" y2="27" fill="none" stroke="#000" stroke-miterlimit="10" stroke-width="2"/> <line x1="21" x2="21" y1="25" y2="27" fill="none" stroke="#000" stroke-miterlimit="10" stroke-width="2"/> <line x1="23" x2="23" y1="23" y2="25" fill="none" stroke="#000" stroke-miterlimit="10" stroke-width="2"/> <line x1="26" x2="26" y1="25" y2="27" fill="none" stroke="#000" stroke-miterlimit="10" stroke-width="2"/> <line x1="16" x2="18" y1="8" y2="8" fill="none" stroke="#000" stroke-miterlimit="10" stroke-width="2"/> <line x1="13" x2="21" y1="14" y2="14" fill="none" stroke="#000" stroke-miterlimit="10" stroke-width="2"/> <line x1="5" x2="7" y1="16" y2="16" fill="none" stroke="#000" stroke-miterlimit="10" stroke-width="2"/> <line x1="7" x2="9" y1="14" y2="14" fill="none" stroke="#000" stroke-miterlimit="10" stroke-width="2"/> <line x1="9" x2="11" y1="16" y2="16" fill="none" stroke="#000" stroke-miterlimit="10" stroke-width="2"/> <line x1="21" x2="23" y1="16" y2="16" fill="none" stroke="#000" stroke-miterlimit="10" stroke-width="2"/> <line x1="23" x2="25" y1="14" y2="14" fill="none" stroke="#000" stroke-miterlimit="10" stroke-width="2"/> <line x1="25" x2="27" y1="16" y2="16" fill="none" stroke="#000" stroke-miterlimit="10" stroke-width="2"/> <line x1="21" x2="23" y1="20" y2="20" fill="none" stroke="#000" stroke-miterlimit="10" stroke-width="2"/> <line x1="23" x2="25" y1="18" y2="18" fill="none" stroke="#000" stroke-miterlimit="10" stroke-width="2"/> <line x1="25" x2="27" y1="20" y2="20" fill="none" stroke="#000" stroke-miterlimit="10" stroke-width="2"/> <line x1="11" x2="19" y1="18" y2="18" fill="none" stroke="#000" stroke-miterlimit="10" stroke-width="2"/> <line x1="17" x2="25" y1="22" y2="22" fill="none" stroke="#000" stroke-miterlimit="10" stroke-width="2"/> <line x1="15" x2="17" y1="16" y2="16" fill="none" stroke="#000" stroke-miterlimit="10" stroke-width="2"/> <line x1="14" x2="16" y1="10" y2="10" fill="none" stroke="#000" stroke-miterlimit="10" stroke-width="2"/> </svg>